# xmcd
#
# Track frame offsets: 
#        150
#        18745
#        32942
#        56672
#        73752
#        87320
#        106104
#        125767
#        146785
#        158565
#        172855
#        187492
#        199767
#        220257
#
# Disc length: 3234 seconds
#
# Revision: 2
# Processed by: cddbd v1.5.2PL0 Copyright (c) Steve Scherf et al.
# Submitted via: ExactAudioCopyFreeDBPlugin 1.0
#
DISCID=d40ca00e
DTITLE=Various Artist - Merry Christmas (King Snake Records)
DYEAR=1996
DGENRE=Holiday
TTITLE0=Floyd Miles - Spending Chirstmas with the Blues (ft Gregg Allm
TTITLE0=an)
TTITLE1=Tony Coleman - Little Drummer Boy
TTITLE2=Floyd Miles - Silent Night (ft Gregg Allman)
TTITLE3=Ace Moreland - Almost Christmas
TTITLE4=Ernie Lancaster - Joy to the World
TTITLE5=Smokehouse - Swampy Christmas
TTITLE6=Noble "Thin Man" Watts - Winter Wonderland
TTITLE7=Sonny Rhodes - Texas Christmas
TTITLE8=Dr. Hector and the Groove Injectors - Rudolph the Red-Nosed Re
TTITLE8=indeer
TTITLE9=Mark Hodgson - We Three Kings
TTITLE10=Tony Coleman - Credit Card Chrismas
TTITLE11=Mark Hodgson - Deck the Halls
TTITLE12=Noble "Thin Man" Watts - Jingle Bells
TTITLE13=Ace Moreland - Bring Chrismas Home to Me
EXTD=
EXTT0=Floyd Miles/Gregg Allman\n
EXTT1=Tony Coleman\n
EXTT2=Floyd Miles/Gregg Allman\n
EXTT3=Ace Moreland\n
EXTT4=Ernie Lancaster\n
EXTT5=Smokehouse\n
EXTT6=Noble Thin Man Watts\n
EXTT7=Sonny Rhodes\n
EXTT8=Dr. Hector and the Groove Infectors\n
EXTT9=Mark Hodgson\n
EXTT10=Tony Coleman\n
EXTT11=Mark Hodgson\n
EXTT12=Noble Thin Man Watts\n
EXTT13=Ace Moreland\n
PLAYORDER=
